<svg width="102" height="126" viewBox="0 0 102 126" fill="none" xmlns="http://www.w3.org/2000/svg">
<rect width="102" height="125.894" fill="#C4C4C4"/>
<line x1="5.35197e-10" y1="22.5" x2="102" y2="22.5" stroke="black"/>
<path d="M11.7808 14.696H12.9008V16.46L11.4448 18H7.91682L6.46082 16.46V10.44L7.91682 8.9H11.4448L12.9008 10.44V12.204H11.7808V11.014L10.8988 10.104H8.47682L7.74882 10.846V16.054L8.46282 16.796H10.8848L11.7808 15.886V14.696ZM14.8554 8.9H18.2434V10.02H17.1234V16.88H20.1754V15.256H21.2394V18H14.8554V16.88H15.8354V10.02H14.8554V8.9ZM24.0906 18L22.6346 16.46V10.44L24.0906 8.9H28.0386L29.4946 10.44V16.46L28.0386 18H24.0906ZM24.6366 16.796H27.4786L28.2066 16.054V10.846L27.4926 10.104H24.6506L23.9226 10.846V16.054L24.6366 16.796ZM36.8921 8.9H40.0001V10.02H39.1601V16.46L37.7041 18H33.8961L32.4401 16.46V10.02H31.6001V8.9H34.7081V10.02H33.7281V16.054L34.4421 16.796H37.1441L37.8721 16.054V10.02H36.8921V8.9ZM42.1034 8.9H48.0674L49.5234 10.44V16.46L48.0674 18H42.1034V16.88H43.0834V10.02H42.1034V8.9ZM44.3714 16.796H47.5074L48.2354 16.054V10.846L47.5214 10.104H44.3714V16.796ZM51.7694 8.9H58.4334V11.644H57.3134V10.02H54.0374V12.89H57.3134V14.01H54.0374V16.88H55.1574V18H51.7694V16.88H52.7494V10.02H51.7694V8.9ZM60.1093 8.9H63.4973V10.02H62.3773V16.88H65.4293V15.256H66.4933V18H60.1093V16.88H61.0893V10.02H60.1093V8.9ZM72.7886 18V16.88H73.7126L73.1106 15.144H69.6106L69.0086 16.88H69.9466V18H66.9786V16.88H67.7206L70.0866 10.02H69.4986V8.9H73.2366V10.02H72.6346L75.0006 16.88H75.7566V18H72.7886ZM71.3606 10.062L69.9886 14.024H72.7326L71.3606 10.062ZM77.0897 8.9H82.6897L84.1457 10.44V13.24L82.7317 14.724L84.0337 16.88H84.7757V18H82.2837V16.88H82.6757L81.4157 14.78H79.3577V16.88H80.1977V18H77.0897V16.88H78.0697V10.02H77.0897V8.9ZM79.3577 10.104V13.576H82.1297L82.9417 12.75V10.93L82.1437 10.104H79.3577ZM86.8788 8.9H93.5428V11.644H92.4228V10.02H89.1468V12.89H92.4228V14.01H89.1468V16.88H92.4228V15.256H93.5428V18H86.8788V16.88H87.8588V10.02H86.8788V8.9Z" fill="black"/>
<g clip-path="url(#clip0)">
<path d="M63.5859 81.6359C64.05 80.0609 63.8672 78.6078 63.0984 77.5344C62.4024 76.5453 61.2188 75.9711 59.7914 75.8984L32.7281 75.5562C32.6446 75.5578 32.5622 75.5372 32.4893 75.4964C32.4164 75.4556 32.3557 75.3962 32.3133 75.3242C32.2266 75.1773 32.2006 75.0025 32.2406 74.8367C32.2941 74.7055 32.3829 74.5916 32.497 74.5076C32.6112 74.4237 32.7463 74.3729 32.8875 74.3609L60.1828 74.007C63.4172 73.8476 66.9328 71.2367 68.1656 68.0258L69.7149 63.9617C69.7907 63.7975 69.8081 63.6122 69.7641 63.4367C68.8866 59.4922 66.6891 55.9653 63.5349 53.4393C60.3808 50.9134 56.4589 49.5396 52.418 49.5453C48.704 49.5454 45.0832 50.7087 42.0642 52.8719C39.0451 55.0351 36.7794 58.0895 35.5852 61.6062C33.9754 60.4098 31.977 59.8574 29.9813 60.057C28.1501 60.2417 26.439 61.0535 25.1377 62.3548C23.8363 63.6562 23.0245 65.3673 22.8399 67.1984C22.7555 68.1617 22.8164 69.1156 23.0344 69.9828C20.0761 70.0695 17.2682 71.3065 15.2076 73.431C13.147 75.5554 11.9963 78.3998 12 81.3594C12 81.8961 12.0492 82.4469 12.1102 83.007C12.1322 83.1313 12.1965 83.2442 12.2922 83.3266C12.3878 83.409 12.509 83.4559 12.6352 83.4594H62.5734C62.7173 83.4569 62.8568 83.4098 62.9727 83.3246C63.0886 83.2393 63.1751 83.1202 63.2203 82.9836L63.5859 81.6359ZM72.2063 64.2547C71.9625 64.2547 71.7047 64.2547 71.4609 64.2922C71.2781 64.2922 71.1305 64.4258 71.0578 64.5969L70.0078 68.2719C69.5438 69.8469 69.7149 71.3 70.4953 72.3851C71.1914 73.3742 72.3867 73.9344 73.8164 74.0094L79.5656 74.3633C79.7484 74.3633 79.8961 74.4359 79.9922 74.5836C80.0725 74.7286 80.0943 74.8988 80.0531 75.0594C80.0075 75.1944 79.9227 75.3128 79.8096 75.3996C79.6965 75.4864 79.5602 75.5377 79.418 75.5469L73.4109 75.9008C70.1508 76.0484 66.6609 78.6711 65.4281 81.882L65.0016 83.0047C64.9031 83.225 65.0625 83.4453 65.3063 83.4453H85.9242C86.0416 83.443 86.1554 83.4041 86.2496 83.3339C86.3437 83.2637 86.4135 83.1658 86.4492 83.0539C86.8031 81.7719 86.9977 80.4289 86.9977 79.0508C86.9977 70.9203 80.3578 64.2805 72.2016 64.2805L72.2063 64.2547Z" fill="black"/>
</g>
<defs>
<clipPath id="clip0">
<rect width="75" height="75" fill="white" transform="translate(12 29)"/>
</clipPath>
</defs>
</svg>
