<svg width="102" height="126" viewBox="0 0 102 126" fill="none" xmlns="http://www.w3.org/2000/svg">
<rect x="1" width="101" height="125.894" fill="#C4C4C4"/>
<path d="M17.375 32.2791L23.5773 102.628L51.5 111.904L79.4228 102.628L85.625 32.2791H17.375ZM73.0244 46.4978L72.1712 54.9039L51.6252 63.6826H71.4433L69.1682 89.7399L51.7162 94.8416L34.156 89.6517L33.0185 76.5164H41.709L42.2778 83.3244L51.6252 85.6875L61.3479 82.9518L62.0048 72.0034L32.4128 71.9152L31.7729 63.6854L52.8537 54.9068H31.0108L29.9785 46.5006L73.0244 46.4978Z" fill="black"/>
<path d="M44.8482 14.2876H45.9682V16.0516L44.5122 17.5916H40.9842L39.5282 16.0516V10.0316L40.9842 8.49155H44.5122L45.9682 10.0316V11.7956H44.8482V10.6056L43.9662 9.69555H41.5442L40.8162 10.4376V15.6456L41.5302 16.3876H43.9522L44.8482 15.4776V14.2876ZM54.0828 11.7956H52.9208V10.5636L52.0808 9.69555H49.9388L49.2108 10.4376V11.8096L49.8968 12.5096H52.8088L54.2228 13.9936V16.0516L52.7668 17.5916H49.2388L47.7828 16.0516V14.2876H48.9448V15.5196L49.7988 16.3876H52.2208L52.9348 15.6456V14.3996L52.2628 13.7136H49.3508L47.9228 12.2156V10.0316L49.3788 8.49155H52.6268L54.0828 10.0316V11.7956ZM62.4773 11.7956H61.3153V10.5636L60.4753 9.69555H58.3333L57.6053 10.4376V11.8096L58.2913 12.5096H61.2033L62.6173 13.9936V16.0516L61.1613 17.5916H57.6333L56.1773 16.0516V14.2876H57.3393V15.5196L58.1933 16.3876H60.6153L61.3293 15.6456V14.3996L60.6573 13.7136H57.7453L56.3173 12.2156V10.0316L57.7733 8.49155H61.0213L62.4773 10.0316V11.7956Z" fill="black"/>
<line x1="5.35198e-10" y1="24.0916" x2="102" y2="24.0916" stroke="black"/>
</svg>
