<svg width="102" height="126" viewBox="0 0 102 126" fill="none" xmlns="http://www.w3.org/2000/svg">
<rect width="102" height="125.894" fill="#C4C4C4"/>
<line x1="5.35197e-10" y1="22.5" x2="102" y2="22.5" stroke="black"/>
<path d="M20.5165 8.9H27.1805V11.644H26.0605V10.02H22.7845V12.89H26.0605V14.01H22.7845V16.88H26.0605V15.256H27.1805V18H20.5165V16.88H21.4965V10.02H20.5165V8.9ZM31.6849 18H28.7169V16.88H29.5289L32.1049 13.338L29.6689 10.02H28.8569V8.9H31.8249V10.02H31.1109L32.9169 12.498L34.7089 10.02H33.9949V8.9H36.9629V10.02H36.1509L33.6449 13.478L36.1369 16.88H36.9629V18H33.9949V16.88H34.6949L32.8189 14.318L30.9709 16.88H31.6849V18ZM38.5087 8.9H44.1087L45.5647 10.44V13.38L44.1087 14.92H40.7767V16.88H41.8967V18H38.5087V16.88H39.4887V10.02H38.5087V8.9ZM40.7767 10.104V13.716H43.5487L44.3607 12.89V10.93L43.5627 10.104H40.7767ZM47.245 8.9H52.845L54.301 10.44V13.24L52.887 14.724L54.189 16.88H54.931V18H52.439V16.88H52.831L51.571 14.78H49.513V16.88H50.353V18H47.245V16.88H48.225V10.02H47.245V8.9ZM49.513 10.104V13.576H52.285L53.097 12.75V10.93L52.299 10.104H49.513ZM57.0341 8.9H63.6981V11.644H62.5781V10.02H59.3021V12.89H62.5781V14.01H59.3021V16.88H62.5781V15.256H63.6981V18H57.0341V16.88H58.0141V10.02H57.0341V8.9ZM72.0945 12.204H70.9325V10.972L70.0925 10.104H67.9505L67.2225 10.846V12.218L67.9085 12.918H70.8205L72.2345 14.402V16.46L70.7785 18H67.2505L65.7945 16.46V14.696H66.9565V15.928L67.8105 16.796H70.2325L70.9465 16.054V14.808L70.2745 14.122H67.3625L65.9345 12.624V10.44L67.3905 8.9H70.6385L72.0945 10.44V12.204ZM80.489 12.204H79.327V10.972L78.487 10.104H76.345L75.617 10.846V12.218L76.303 12.918H79.215L80.629 14.402V16.46L79.173 18H75.645L74.189 16.46V14.696H75.351V15.928L76.205 16.796H78.627L79.341 16.054V14.808L78.669 14.122H75.757L74.329 12.624V10.44L75.785 8.9H79.033L80.489 10.44V12.204Z" fill="black"/>
<path d="M37.5843 85.5682C43.1241 85.5682 47.1724 82.7983 48.4508 78.679L44.4025 77.5426C43.3372 80.3835 40.8691 81.804 37.5843 81.804C32.666 81.804 29.2747 78.6257 29.0794 72.7841H48.877V71.0085C48.877 60.8523 42.84 57.3722 37.1582 57.3722C29.7718 57.3722 24.8713 63.196 24.8713 71.5767C24.8713 79.9574 29.7008 85.5682 37.5843 85.5682ZM29.0794 69.1619C29.3635 64.9183 32.3642 61.1364 37.1582 61.1364C41.7037 61.1364 44.6156 64.5455 44.6156 69.1619H29.0794ZM57.6438 57.7273H52.8143L61.479 71.3636L52.8143 85H57.6438L64.1779 74.4176L70.712 85H75.5415L66.7347 71.3636L75.5415 57.7273H70.712L64.1779 68.8778L57.6438 57.7273Z" fill="black"/>
</svg>
