<svg width="102" height="126" viewBox="0 0 102 126" fill="none" xmlns="http://www.w3.org/2000/svg">
<rect width="102" height="125.894" fill="#C4C4C4"/>
<line x1="5.35197e-10" y1="22.5" x2="102" y2="22.5" stroke="black"/>
<path d="M29.1434 8.9H35.8074V11.644H34.6874V10.02H31.4114V12.89H34.6874V14.01H31.4114V16.88H32.5314V18H29.1434V16.88H30.1234V10.02H29.1434V8.9ZM37.3433 16.88H38.4633V10.02H37.3433V8.9H40.8713V10.02H39.7513V16.88H40.8713V18H37.3433V16.88ZM48.4257 14.43H46.4937V13.31H49.5457V16.46L48.0897 18H44.4217L42.9657 16.46V10.44L44.4217 8.9H48.0897L49.5457 10.44V12.204H48.4257V11.014L47.5437 10.104H44.9817L44.2537 10.846V16.054L44.9677 16.796H47.5297L48.4257 15.886V14.43ZM53.9153 16.88H54.8953V18H51.6473V16.88H52.6273V10.02H51.6473V8.9H54.5033L57.1493 15.522L59.7953 8.9H62.6513V10.02H61.6713V16.88H62.6513V18H59.4033V16.88H60.3833V10.482L57.7653 16.88H56.5333L53.9153 10.482V16.88ZM69.7954 18V16.88H70.7194L70.1174 15.144H66.6174L66.0154 16.88H66.9534V18H63.9854V16.88H64.7274L67.0934 10.02H66.5054V8.9H70.2434V10.02H69.6414L72.0074 16.88H72.7634V18H69.7954ZM68.3674 10.062L66.9954 14.024H69.7394L68.3674 10.062Z" fill="black"/>
<path d="M62.7455 59.2545C65.6691 59.1667 68.4436 57.9437 70.4806 55.8446C72.5176 53.7456 73.6569 50.9356 73.6569 48.0107C73.6569 45.0857 72.5176 42.2758 70.4806 40.1767C68.4436 38.0777 65.6691 36.8546 62.7455 36.7668H40.2545C37.3308 36.8546 34.5563 38.0777 32.5193 40.1767C30.4823 42.2758 29.343 45.0857 29.343 48.0107C29.343 50.9356 30.4823 53.7456 32.5193 55.8446C34.5563 57.9437 37.3308 59.1667 40.2545 59.2545C37.3053 59.3056 34.4941 60.513 32.4266 62.6167C30.359 64.7204 29.2004 67.552 29.2004 70.5017C29.2004 73.4513 30.359 76.2829 32.4266 78.3866C34.4941 80.4903 37.3053 81.6978 40.2545 81.7488C37.3197 81.8208 34.5293 83.0371 32.479 85.1382C30.4288 87.2393 29.2811 90.0587 29.2811 92.9943C29.2811 95.93 30.4288 98.7494 32.479 100.85C34.5293 102.952 37.3197 104.168 40.2545 104.24C43.237 104.238 46.0968 103.052 48.2055 100.943C50.3141 98.8337 51.4991 95.9735 51.5 92.991V59.2545H62.7455Z" fill="black"/>
<path d="M62.7455 81.7455C68.9562 81.7455 73.991 76.7107 73.991 70.5C73.991 64.2893 68.9562 59.2545 62.7455 59.2545C56.5348 59.2545 51.5 64.2893 51.5 70.5C51.5 76.7107 56.5348 81.7455 62.7455 81.7455Z" fill="black"/>
</svg>
