<svg width="102" height="126" viewBox="0 0 102 126" fill="none" xmlns="http://www.w3.org/2000/svg">
<rect width="102" height="125.894" fill="#C4C4C4"/>
<line x1="5.35197e-10" y1="22.5" x2="102" y2="22.5" stroke="black"/>
<path d="M43.6738 13.73H41.7418V12.61H44.7938V16.46L43.3378 18H39.6698L38.2138 16.46V9.04L39.6698 7.5H43.3378L44.7938 9.04V10.804H43.6738V9.614L42.7918 8.704H40.2298L39.5018 9.446V16.054L40.2158 16.796H42.7778L43.6738 15.886V13.73ZM52.2154 14.696H53.3354V16.46L51.8794 18H48.3514L46.8954 16.46V9.04L48.3514 7.5H51.8794L53.3354 9.04V10.804H52.2154V9.614L51.3334 8.704H48.9114L48.1834 9.446V16.054L48.8974 16.796H51.3194L52.2154 15.886V14.696ZM55.2899 7.5H60.8899L62.3459 9.04V12.26L60.8899 13.8H57.5579V16.88H58.6779V18H55.2899V16.88H56.2699V8.62H55.2899V7.5ZM57.5579 8.704V12.596H60.3299L61.1419 11.77V9.53L60.3439 8.704H57.5579Z" fill="black"/>
<path d="M86.6667 81.1667C86.6667 92.6667 77.3333 102 65.8333 102H34.1667C22.6667 102 13.3333 92.6667 13.3333 81.1667C13.3333 74.0333 16.9333 67.7333 22.3667 64C25.2667 51.4 36.5333 42 50 42C63.4667 42 74.7333 51.4 77.6333 64C80.4247 65.908 82.707 68.4696 84.2815 71.4617C85.856 74.4538 86.6748 77.7856 86.6667 81.1667ZM65.4333 88.6667C69.8 88.6667 73.3333 85.1333 73.3333 80.7667C73.3333 76.5 70 73 65.7333 72.8333L65.8333 71.1667C65.8307 67.9488 64.8485 64.8079 63.0173 62.1619C61.1861 59.5158 58.5927 57.49 55.582 56.3537C52.5714 55.2175 49.2862 55.0248 46.1634 55.8012C43.0405 56.5775 40.2281 58.2862 38.1 60.7C43.1 61.6667 47.4333 64.4 50.4667 68.2L41.6667 77C40.2667 74.5667 37.6333 72.8333 34.6 72.8333C30.2 72.8333 26.6667 76.3667 26.6667 80.7667C26.6667 85 30 88.4333 34.1667 88.6667H65.4333V88.6667Z" fill="black"/>
</svg>
