<svg width="102" height="126" viewBox="0 0 102 126" fill="none" xmlns="http://www.w3.org/2000/svg">
<rect width="102" height="125.894" fill="#C4C4C4"/>
<line x1="5.35197e-10" y1="22.5" x2="102" y2="22.5" stroke="black"/>
<path d="M22.3143 8.9H25.5623V10.02H24.5823V12.89H28.8943V10.02H27.9143V8.9H31.1623V10.02H30.1823V16.88H31.1623V18H27.9143V16.88H28.8943V14.01H24.5823V16.88H25.5623V18H22.3143V16.88H23.2943V10.02H22.3143V8.9ZM33.4022 8.9H40.0662V11.644H38.9462V10.02H35.6702V12.89H38.9462V14.01H35.6702V16.88H38.9462V15.256H40.0662V18H33.4022V16.88H34.3822V10.02H33.4022V8.9ZM42.3026 8.9H47.9026L49.3586 10.44V13.24L47.9446 14.724L49.2466 16.88H49.9886V18H47.4966V16.88H47.8886L46.6286 14.78H44.5706V16.88H45.4106V18H42.3026V16.88H43.2826V10.02H42.3026V8.9ZM44.5706 10.104V13.576H47.3426L48.1546 12.75V10.93L47.3566 10.104H44.5706ZM53.5477 18L52.0917 16.46V10.44L53.5477 8.9H57.4957L58.9517 10.44V16.46L57.4957 18H53.5477ZM54.0937 16.796H56.9357L57.6637 16.054V10.846L56.9497 10.104H54.1077L53.3797 10.846V16.054L54.0937 16.796ZM69.1631 18H66.1951V16.88H66.9091L64.8511 14.01H63.4651V16.88H64.4451V18H61.1971V16.88H62.1771V10.02H61.1971V8.9H64.4451V10.02H63.4651V12.89H64.6971L66.7691 10.02H66.0551V8.9H69.0231V10.02H68.2111L65.8171 13.352L68.3511 16.88H69.1631V18ZM75.7144 8.9H78.8224V10.02H77.9824V16.46L76.5264 18H72.7184L71.2624 16.46V10.02H70.4224V8.9H73.5304V10.02H72.5504V16.054L73.2644 16.796H75.9664L76.6944 16.054V10.02H75.7144V8.9Z" fill="black"/>
<g clip-path="url(#clip0)">
<path d="M76.1125 37.9999H25.8875C25.0591 37.9961 24.2381 38.1564 23.472 38.4716C22.7059 38.7869 22.0099 39.2508 21.4241 39.8366C20.8383 40.4223 20.3744 41.1184 20.0592 41.8845C19.7439 42.6506 19.5836 43.4715 19.5875 44.2999V101.703C19.584 102.531 19.7446 103.352 20.06 104.117C20.3754 104.883 20.8394 105.579 21.4251 106.164C22.0109 106.75 22.7068 107.213 23.4727 107.529C24.2386 107.844 25.0593 108.004 25.8875 108H76.1125C76.9404 108.003 77.7608 107.843 78.5264 107.528C79.2919 107.212 79.9875 106.749 80.5729 106.163C81.1584 105.578 81.6221 104.882 81.9373 104.117C82.2525 103.351 82.413 102.531 82.4096 101.703V44.2999C82.4138 43.4717 82.2538 42.6508 81.9389 41.8847C81.624 41.1186 81.1604 40.4226 80.5748 39.8367C79.9893 39.2509 79.2934 38.787 78.5275 38.4717C77.7616 38.1564 76.9407 37.9961 76.1125 37.9999V37.9999ZM78.9125 101.703C78.9125 103.275 77.6846 104.503 76.1125 104.503H25.8875C25.5185 104.508 25.1523 104.438 24.8104 104.299C24.4686 104.16 24.158 103.954 23.8971 103.693C23.6361 103.432 23.4301 103.122 23.291 102.78C23.152 102.438 23.0828 102.072 23.0875 101.703V44.2999C23.0875 42.7249 24.3125 41.497 25.8875 41.497H76.1125C76.4815 41.4931 76.8476 41.563 77.1893 41.7025C77.5309 41.842 77.8413 42.0484 78.1021 42.3095C78.3629 42.5705 78.569 42.8811 78.7081 43.2229C78.8473 43.5647 78.9168 43.9309 78.9125 44.2999V101.703ZM35.3375 97.497L43.2125 90.4999L35.3375 83.4999V97.497ZM63.6875 69.1499C62.2904 67.7499 59.6654 65.9999 55.2904 65.9999C50.5625 65.9999 45.6625 67.2279 42.1654 68.4499V48.4999H35.1654V78.7749L40.0654 76.4999C40.0654 76.4999 48.1154 72.8249 55.1154 72.8249C58.6154 72.8249 59.4904 74.7499 59.4904 76.4999V97.4999H66.4904V76.4999C66.6625 75.9779 66.6625 72.122 63.6875 69.1499V69.1499ZM54.4125 59.8749H61.4125C64.5625 56.1999 66.1375 52.522 66.6625 48.4999H59.6654C58.9625 52.522 57.2125 56.1999 54.4125 59.8749Z" fill="black"/>
</g>
<defs>
<clipPath id="clip0">
<rect x="16" y="38" width="70" height="70" fill="white"/>
</clipPath>
</defs>
</svg>
