<svg width="102" height="126" viewBox="0 0 102 126" fill="none" xmlns="http://www.w3.org/2000/svg">
<rect x="1" width="101" height="125.894" fill="#C4C4C4"/>
<line x1="5.35197e-10" y1="24.3943" x2="102" y2="24.3943" stroke="black"/>
<g clip-path="url(#clip0)">
<path d="M16.671 33.8943L23.0108 104.994L51.4606 112.894L79.9846 104.984L86.3342 33.8943H16.676H16.671ZM72.5339 57.1499H39.1663L39.9612 66.0818H71.7439L69.3492 92.853L51.4606 97.8102L33.5968 92.853L32.3772 79.1563H41.1314L41.7535 86.1182L51.4656 88.7351L51.4853 88.7302L61.2023 86.1083L62.2096 74.8015H31.9871L29.6369 48.4303H73.3189L72.5388 57.1499H72.5339Z" fill="black"/>
</g>
<path d="M33.5018 7.79429H36.7498V8.91429H35.7698V11.7843H40.0818V8.91429H39.1018V7.79429H42.3498V8.91429H41.3698V15.7743H42.3498V16.8943H39.1018V15.7743H40.0818V12.9043H35.7698V15.7743H36.7498V16.8943H33.5018V15.7743H34.4818V8.91429H33.5018V7.79429ZM49.5737 16.8943H45.4857V15.7743H46.8857V8.91429H44.9537V10.5383H43.8897V7.79429H51.1697V10.5383H50.1057V8.91429H48.1737V15.7743H49.5737V16.8943ZM54.9788 15.7743H55.9588V16.8943H52.7108V15.7743H53.6908V8.91429H52.7108V7.79429H55.5668L58.2128 14.4163L60.8588 7.79429H63.7148V8.91429H62.7348V15.7743H63.7148V16.8943H60.4668V15.7743H61.4468V9.37629L58.8288 15.7743H57.5968L54.9788 9.37629V15.7743ZM65.9589 7.79429H69.3469V8.91429H68.2269V15.7743H71.2789V14.1503H72.3429V16.8943H65.9589V15.7743H66.9389V8.91429H65.9589V7.79429Z" fill="black"/>
<defs>
<clipPath id="clip0">
<rect x="12" y="33.8943" width="79" height="79" fill="white"/>
</clipPath>
</defs>
</svg>
