<svg width="40" height="40" viewBox="0 0 40 40" fill="none" xmlns="http://www.w3.org/2000/svg">
<path d="M20 1.6665C15.1377 1.6665 10.4746 3.59805 7.0364 7.03621C3.59823 10.4744 1.66669 15.1375 1.66669 19.9998C1.66669 24.8621 3.59823 29.5253 7.0364 32.9635C10.4746 36.4016 15.1377 38.3332 20 38.3332C24.8623 38.3332 29.5255 36.4016 32.9636 32.9635C36.4018 29.5253 38.3334 24.8621 38.3334 19.9998C38.3334 15.1375 36.4018 10.4744 32.9636 7.03621C29.5255 3.59805 24.8623 1.6665 20 1.6665V1.6665ZM24.8334 34.9465H24.69C24.5833 34.9523 24.4765 34.9362 24.3762 34.8992C24.2759 34.8622 24.1842 34.8052 24.1067 34.7315C24.0351 34.656 23.9792 34.567 23.9423 34.4698C23.9054 34.3725 23.8882 34.2688 23.8917 34.1648V32.0148C23.9017 31.3015 23.9084 30.5815 23.9084 29.8532C23.9056 29.321 23.8277 28.7918 23.6767 28.2815C23.5345 27.7661 23.2476 27.3023 22.85 26.9448C23.9148 26.842 24.9615 26.5999 25.9634 26.2248C26.8085 25.9037 27.5731 25.4014 28.2034 24.7532C28.825 24.0998 29.2867 23.3132 29.5534 22.4515C29.88 21.3982 30.035 20.3015 30.0134 19.1982C30.0183 18.4284 29.8827 17.6643 29.6134 16.9432C29.3413 16.2165 28.9297 15.5501 28.4017 14.9815C28.515 14.6948 28.5983 14.3965 28.6483 14.0915C28.7645 13.3931 28.7441 12.6788 28.5884 11.9882C28.5049 11.5914 28.3918 11.2014 28.25 10.8215C28.1958 10.8006 28.1381 10.7904 28.08 10.7915H27.9133C27.5633 10.7948 27.215 10.8532 26.8833 10.9615C26.5167 11.0682 26.1567 11.2015 25.8084 11.3598C25.462 11.5149 25.1248 11.6896 24.7984 11.8832C24.501 12.0585 24.2092 12.243 23.9234 12.4365C21.3534 11.7203 18.6366 11.7203 16.0667 12.4365C15.7797 12.2448 15.4879 12.0603 15.1917 11.8832C14.8607 11.6874 14.5178 11.5127 14.165 11.3598C13.8178 11.1974 13.4577 11.0641 13.0884 10.9615C12.7618 10.8535 12.4206 10.7962 12.0767 10.7915H11.91C11.8529 10.7912 11.7964 10.802 11.7434 10.8232C11.5986 11.203 11.48 11.5922 11.3884 11.9882C11.2438 12.6805 11.2285 13.3936 11.3434 14.0915C11.3934 14.3965 11.475 14.6948 11.5884 14.9815C11.0608 15.5501 10.6498 16.2166 10.3784 16.9432C10.109 17.6643 9.97343 18.4284 9.97835 19.1982C9.9563 20.2936 10.1059 21.3857 10.4217 22.4348C10.7 23.2965 11.16 24.0882 11.7734 24.7532C12.4067 25.3965 13.17 25.8982 14.0134 26.2248C15.01 26.6082 16.055 26.8532 17.1184 26.9532C16.8217 27.2215 16.585 27.5532 16.4284 27.9198C16.2784 28.2848 16.1734 28.6665 16.1217 29.0565C15.5612 29.3252 14.9482 29.4664 14.3267 29.4698C13.7495 29.4924 13.18 29.3313 12.7 29.0098C12.2389 28.6687 11.8484 28.2414 11.55 27.7515C11.4166 27.5461 11.2678 27.3511 11.105 27.1682C10.933 26.9763 10.7433 26.8011 10.5384 26.6448C10.3353 26.4934 10.1128 26.37 9.87669 26.2782C9.64501 26.1763 9.39476 26.1236 9.14169 26.1232C9.0803 26.1251 9.01909 26.1307 8.95835 26.1398C8.87502 26.1398 8.79169 26.1498 8.71169 26.1698C8.64014 26.1884 8.57243 26.2194 8.51169 26.2615C8.48482 26.2768 8.4624 26.2988 8.44663 26.3254C8.43085 26.352 8.42225 26.3823 8.42169 26.4132C8.42836 26.4868 8.45107 26.5581 8.48821 26.622C8.52535 26.6859 8.57603 26.7409 8.63669 26.7832C8.77669 26.8965 8.89502 26.9832 8.99002 27.0448L9.03335 27.0765C9.23835 27.2332 9.43335 27.4032 9.61669 27.5848C9.79002 27.7348 9.94502 27.9048 10.0767 28.0898C10.215 28.2698 10.3334 28.4665 10.43 28.6715C10.5417 28.8765 10.66 29.1115 10.7834 29.3782C11.07 30.1015 11.58 30.7148 12.24 31.1282C12.9317 31.4998 13.71 31.6848 14.495 31.6648C14.7617 31.6648 15.0284 31.6482 15.295 31.6182C15.555 31.5765 15.8167 31.5315 16.0784 31.4798V34.1432C16.0828 34.2503 16.0646 34.3572 16.0251 34.4569C15.9855 34.5566 15.9254 34.6468 15.8487 34.7218C15.772 34.7968 15.6804 34.8548 15.5799 34.892C15.4793 34.9293 15.372 34.945 15.265 34.9382H15.17C11.6077 33.7872 8.57331 31.4023 6.61328 28.2127C4.65326 25.0232 3.89638 21.2387 4.47894 17.5406C5.0615 13.8426 6.94522 10.4741 9.79089 8.04158C12.6366 5.6091 16.2572 4.27252 20.0009 4.27252C23.7445 4.27252 27.3651 5.6091 30.2108 8.04158C33.0565 10.4741 34.9402 13.8426 35.5228 17.5406C36.1053 21.2387 35.3484 25.0232 33.3884 28.2127C31.4284 31.4023 28.394 33.7872 24.8317 34.9382V34.9465H24.8334Z" fill="#A6A6A6"/>
</svg>
