<svg width="40" height="40" viewBox="0 0 40 40" fill="none" xmlns="http://www.w3.org/2000/svg">
<path d="M3.34 36.6668L5.59334 28.3868C4.10857 25.8416 3.3285 22.9468 3.33334 20.0002C3.33334 10.7952 10.795 3.3335 20 3.3335C29.205 3.3335 36.6667 10.7952 36.6667 20.0002C36.6667 29.2052 29.205 36.6668 20 36.6668C17.0546 36.6716 14.1611 35.8921 11.6167 34.4085L3.34 36.6668ZM13.985 12.1802C13.7698 12.1935 13.5595 12.2502 13.3667 12.3468C13.1859 12.4492 13.0208 12.5772 12.8767 12.7268C12.6767 12.9152 12.5633 13.0785 12.4417 13.2368C11.8257 14.0385 11.4944 15.0225 11.5 16.0335C11.5033 16.8502 11.7167 17.6452 12.05 18.3885C12.7317 19.8918 13.8533 21.4835 15.335 22.9585C15.6917 23.3135 16.04 23.6702 16.415 24.0018C18.254 25.6209 20.4454 26.7886 22.815 27.4118L23.7633 27.5568C24.0717 27.5735 24.38 27.5502 24.69 27.5352C25.1754 27.5101 25.6494 27.3787 26.0783 27.1502C26.2966 27.0377 26.5096 26.9154 26.7167 26.7835C26.7167 26.7835 26.7883 26.7368 26.925 26.6335C27.15 26.4668 27.2883 26.3485 27.475 26.1535C27.6133 26.0102 27.7333 25.8418 27.825 25.6502C27.955 25.3785 28.085 24.8602 28.1383 24.4285C28.1783 24.0985 28.1667 23.9185 28.1617 23.8068C28.155 23.6285 28.0067 23.4435 27.845 23.3652L26.875 22.9302C26.875 22.9302 25.425 22.2985 24.54 21.8952C24.4467 21.8545 24.3467 21.8313 24.245 21.8268C24.131 21.8151 24.0157 21.8279 23.9071 21.8645C23.7984 21.901 23.6988 21.9603 23.615 22.0385V22.0352C23.6067 22.0352 23.495 22.1302 22.29 23.5902C22.2208 23.6831 22.1256 23.7533 22.0163 23.7919C21.9071 23.8305 21.7889 23.8357 21.6767 23.8068C21.5681 23.7778 21.4617 23.741 21.3583 23.6968C21.1517 23.6102 21.08 23.5768 20.9383 23.5152L20.93 23.5118C19.9765 23.0955 19.0937 22.5332 18.3133 21.8452C18.1033 21.6618 17.9083 21.4618 17.7083 21.2685C17.0526 20.6406 16.4812 19.9302 16.0083 19.1552L15.91 18.9968C15.8394 18.8904 15.7823 18.7757 15.74 18.6552C15.6767 18.4102 15.8417 18.2135 15.8417 18.2135C15.8417 18.2135 16.2467 17.7702 16.435 17.5302C16.5918 17.3307 16.7381 17.1232 16.8733 16.9085C17.07 16.5918 17.1317 16.2668 17.0283 16.0152C16.5617 14.8752 16.0783 13.7402 15.5817 12.6135C15.4833 12.3902 15.1917 12.2302 14.9267 12.1985C14.8367 12.1885 14.7467 12.1785 14.6567 12.1718C14.4328 12.1607 14.2086 12.1629 13.985 12.1785V12.1802Z" fill="#A6A6A6"/>
</svg>
