<svg width="102" height="126" viewBox="0 0 102 126" fill="none" xmlns="http://www.w3.org/2000/svg">
<rect width="102" height="125.894" fill="#C4C4C4"/>
<line x1="5.35197e-10" y1="22.5" x2="102" y2="22.5" stroke="black"/>
<path d="M13.8303 10.02H12.8503V8.9H15.9583V10.02H15.1183V16.46L13.6623 18H10.9743L9.51828 16.46V13.996H10.6383V15.886L11.5203 16.796H13.1023L13.8303 16.054V10.02ZM22.8188 18V16.88H23.7428L23.1408 15.144H19.6408L19.0388 16.88H19.9768V18H17.0088V16.88H17.7508L20.1168 10.02H19.5288V8.9H23.2668V10.02H22.6648L25.0308 16.88H25.7868V18H22.8188ZM21.3908 10.062L20.0188 14.024H22.7628L21.3908 10.062ZM25.2956 10.02V8.9H28.2636V10.02H27.3536L29.8176 16.894L32.2956 10.02H31.3856V8.9H34.3536V10.02H33.5836L30.7136 18H28.9356L26.0656 10.02H25.2956ZM39.6626 18V16.88H40.5866L39.9846 15.144H36.4846L35.8826 16.88H36.8206V18H33.8526V16.88H34.5946L36.9606 10.02H36.3726V8.9H40.1106V10.02H39.5086L41.8746 16.88H42.6306V18H39.6626ZM38.2346 10.062L36.8626 14.024H39.6066L38.2346 10.062ZM50.1238 12.204H48.9618V10.972L48.1218 10.104H45.9798L45.2518 10.846V12.218L45.9378 12.918H48.8498L50.2638 14.402V16.46L48.8078 18H45.2798L43.8238 16.46V14.696H44.9858V15.928L45.8398 16.796H48.2618L48.9758 16.054V14.808L48.3038 14.122H45.3918L43.9638 12.624V10.44L45.4198 8.9H48.6678L50.1238 10.44V12.204ZM57.6783 14.696H58.7983V16.46L57.3423 18H53.8143L52.3583 16.46V10.44L53.8143 8.9H57.3423L58.7983 10.44V12.204H57.6783V11.014L56.7963 10.104H54.3743L53.6463 10.846V16.054L54.3603 16.796H56.7823L57.6783 15.886V14.696ZM60.7528 8.9H66.3528L67.8088 10.44V13.24L66.3948 14.724L67.6968 16.88H68.4388V18H65.9468V16.88H66.3388L65.0788 14.78H63.0208V16.88H63.8608V18H60.7528V16.88H61.7328V10.02H60.7528V8.9ZM63.0208 10.104V13.576H65.7928L66.6048 12.75V10.93L65.8068 10.104H63.0208ZM70.4019 16.88H71.5219V10.02H70.4019V8.9H73.9299V10.02H72.8099V16.88H73.9299V18H70.4019V16.88ZM76.0243 8.9H81.6243L83.0803 10.44V13.38L81.6243 14.92H78.2923V16.88H79.4123V18H76.0243V16.88H77.0043V10.02H76.0243V8.9ZM78.2923 10.104V13.716H81.0643L81.8763 12.89V10.93L81.0783 10.104H78.2923ZM89.7446 18H85.6566V16.88H87.0566V10.02H85.1246V11.644H84.0606V8.9H91.3406V11.644H90.2766V10.02H88.3446V16.88H89.7446V18Z" fill="black"/>
<path d="M84.1071 30.875H18.8929C13.9833 30.875 10 34.8223 10 39.6875V104.312C10 109.178 13.9833 113.125 18.8929 113.125H84.1071C89.0167 113.125 93 109.178 93 104.312V39.6875C93 34.8223 89.0167 30.875 84.1071 30.875ZM55.1683 95.0227C55.1683 103.027 50.4254 106.681 43.515 106.681C37.2714 106.681 33.6587 103.486 31.806 99.6125L38.1607 95.8121C39.3835 97.9602 40.4951 99.7777 43.1815 99.7777C45.7382 99.7777 47.3685 98.7863 47.3685 94.9125V68.6402H55.1683V95.0227ZM73.621 106.681C66.377 106.681 61.6897 103.266 59.4109 98.7863L65.7656 95.1512C67.433 97.85 69.6192 99.8512 73.4542 99.8512C76.6779 99.8512 78.7529 98.2539 78.7529 96.0324C78.7529 93.3887 76.6408 92.4523 73.0652 90.8918L71.1199 90.0656C65.4877 87.6973 61.7638 84.7047 61.7638 78.4074C61.7638 72.6059 66.2288 68.1996 73.1763 68.1996C78.1415 68.1996 81.6987 69.907 84.2554 74.3867L78.1786 78.2422C76.8446 75.8738 75.3996 74.9375 73.1578 74.9375C70.879 74.9375 69.4339 76.3695 69.4339 78.2422C69.4339 80.5555 70.879 81.4918 74.2324 82.9422L76.1777 83.7684C82.8103 86.5773 86.5341 89.4598 86.5341 95.9223C86.5341 102.862 81.0132 106.681 73.621 106.681Z" fill="black"/>
</svg>
