<svg width="102" height="126" viewBox="0 0 102 126" fill="none" xmlns="http://www.w3.org/2000/svg">
<rect width="102" height="125.894" fill="#C4C4C4"/>
<line x1="5.35197e-10" y1="22.5" x2="102" y2="22.5" stroke="black"/>
<path d="M40.0666 8.62H39.0866V7.5H42.1946V8.62H41.3546V16.46L39.8986 18H37.2106L35.7546 16.46V13.996H36.8746V15.886L37.7566 16.796H39.3386L40.0666 16.054V8.62ZM43.3152 8.62V7.5H46.2832V8.62H45.2472L47.2772 16.46L49.3072 8.62H48.7052V7.5H51.7292V8.62H51.1132L53.1432 16.46L55.1732 8.62H54.1512V7.5H57.1192V8.62H56.4612L54.0392 18H52.3172L50.2172 9.894L48.1172 18H46.3952L43.9592 8.62H43.3152ZM63.5083 18H59.4203V16.88H60.8203V8.62H58.7483V10.244H57.6843V7.5H65.2443V10.244H64.1803V8.62H62.1083V16.88H63.5083V18Z" fill="black"/>
<path d="M44.875 36V56.175L50.5 63.9L56.125 56.175V36H44.875ZM56.125 56.175V65.775L65.2 62.775L77.125 46.5L67.975 39.825L56.125 56.175ZM65.2 62.775L59.575 70.575L68.725 73.5L87.925 67.275L84.4 56.55L65.2 62.775ZM68.725 73.5L59.575 76.425L65.2 84.225L84.4 90.45L87.925 79.725L68.725 73.5ZM65.2 84.225L56.125 81.225V90.825L67.975 107.175L77.125 100.5L65.2 84.225ZM56.125 90.825L50.5 83.1L44.875 90.825V111H56.125V90.825ZM44.875 90.825V81.225L35.8 84.225L23.875 100.5L33.025 107.175L44.875 90.825ZM35.8 84.225L41.425 76.425L32.275 73.5L13.075 79.725L16.6 90.45L35.8 84.225ZM32.275 73.5L41.425 70.575L35.8 62.775L16.6 56.55L13.075 67.275L32.275 73.5ZM35.8 62.775L44.875 65.775V56.175L33.025 39.825L23.875 46.5L35.8 62.775Z" fill="black"/>
</svg>
