<svg width="1667" height="402" viewBox="0 0 1667 402" fill="none" xmlns="http://www.w3.org/2000/svg">
<g filter="url(#filter0_di)">
<path d="M447.345 319.833C429.768 319.833 415.816 312.288 405.49 297.2C395.163 282.111 390 261.586 390 235.624C390 204.115 397.91 176.683 413.729 160.263C429.548 143.621 452.288 135.3 481.949 135.3C498.648 135.3 518.202 141.43 540.613 146.755V314.84H496.45L497.439 287.547H496.121C490.408 297.976 483.378 305.964 475.029 311.512C466.899 317.059 457.671 319.833 447.345 319.833ZM457.232 278.893C464.043 278.893 470.744 275.232 477.336 267.91C483.927 260.587 490.079 250.824 495.791 238.619V182.702C488.761 180.705 481.73 179.706 474.699 179.706C461.516 179.706 451.519 184.255 444.708 193.353C438.117 202.451 434.821 215.875 434.821 233.627C434.821 247.606 436.799 258.701 440.753 266.911C444.708 274.899 450.201 278.893 457.232 278.893Z" fill="#7F7F7F"/>
<path d="M447.345 319.833C429.768 319.833 415.816 312.288 405.49 297.2C395.163 282.111 390 261.586 390 235.624C390 204.115 397.91 176.683 413.729 160.263C429.548 143.621 452.288 135.3 481.949 135.3C498.648 135.3 518.202 141.43 540.613 146.755V314.84H496.45L497.439 287.547H496.121C490.408 297.976 483.378 305.964 475.029 311.512C466.899 317.059 457.671 319.833 447.345 319.833ZM457.232 278.893C464.043 278.893 470.744 275.232 477.336 267.91C483.927 260.587 490.079 250.824 495.791 238.619V182.702C488.761 180.705 481.73 179.706 474.699 179.706C461.516 179.706 451.519 184.255 444.708 193.353C438.117 202.451 434.821 215.875 434.821 233.627C434.821 247.606 436.799 258.701 440.753 266.911C444.708 274.899 450.201 278.893 457.232 278.893Z" fill="url(#paint0_linear)"/>
<path d="M496.294 146.894H541.775V173.521C555.177 152.663 573.303 142.234 596.153 142.234C609.116 142.234 620.102 145.341 629.11 151.554C638.338 157.545 645.039 166.199 649.214 177.515C656.904 165.311 665.473 156.435 674.92 150.888C684.588 145.119 695.573 142.234 707.877 142.234C726.113 142.234 740.284 147.781 750.391 158.876C760.718 169.749 765.881 184.949 765.881 204.475V318.307H719.412V211.798C719.412 202.922 717.215 196.043 712.82 191.162C708.646 186.058 702.933 183.506 695.683 183.506C686.675 183.506 678.326 187.279 670.636 194.823C662.946 202.367 657.233 212.02 653.498 223.78V318.307H607.029V211.798C607.029 203.144 604.832 196.265 600.438 191.162C596.044 186.058 590.221 183.506 582.971 183.506C574.841 183.506 567.151 186.613 559.901 192.826C552.87 198.817 547.158 207.36 542.763 218.455V318.307H496.294V146.894Z" fill="#7F7F7F"/>
<path d="M496.294 146.894H541.775V173.521C555.177 152.663 573.303 142.234 596.153 142.234C609.116 142.234 620.102 145.341 629.11 151.554C638.338 157.545 645.039 166.199 649.214 177.515C656.904 165.311 665.473 156.435 674.92 150.888C684.588 145.119 695.573 142.234 707.877 142.234C726.113 142.234 740.284 147.781 750.391 158.876C760.718 169.749 765.881 184.949 765.881 204.475V318.307H719.412V211.798C719.412 202.922 717.215 196.043 712.82 191.162C708.646 186.058 702.933 183.506 695.683 183.506C686.675 183.506 678.326 187.279 670.636 194.823C662.946 202.367 657.233 212.02 653.498 223.78V318.307H607.029V211.798C607.029 203.144 604.832 196.265 600.438 191.162C596.044 186.058 590.221 183.506 582.971 183.506C574.841 183.506 567.151 186.613 559.901 192.826C552.87 198.817 547.158 207.36 542.763 218.455V318.307H496.294V146.894Z" fill="url(#paint1_linear)"/>
<path d="M823.58 323.3C806.003 323.3 792.052 315.756 781.725 300.667C771.399 285.578 766.235 265.053 766.235 239.091C766.235 207.582 774.145 183.617 789.964 167.197C805.784 150.555 828.524 142.234 858.185 142.234C874.883 142.234 894.437 144.897 916.848 150.222V318.307H872.686L873.675 291.014H872.356C866.644 301.443 859.613 309.432 851.264 314.979C843.135 320.526 833.907 323.3 823.58 323.3ZM833.467 282.36C840.278 282.36 846.98 278.699 853.571 271.377C860.162 264.054 866.314 254.291 872.027 242.087V186.169C864.996 184.172 857.965 183.174 850.934 183.174C837.752 183.174 827.755 187.722 820.944 196.82C814.352 205.918 811.057 219.342 811.057 237.094C811.057 251.073 813.034 262.168 816.989 270.378C820.944 278.366 826.437 282.36 833.467 282.36Z" fill="#7F7F7F"/>
<path d="M823.58 323.3C806.003 323.3 792.052 315.756 781.725 300.667C771.399 285.578 766.235 265.053 766.235 239.091C766.235 207.582 774.145 183.617 789.964 167.197C805.784 150.555 828.524 142.234 858.185 142.234C874.883 142.234 894.437 144.897 916.848 150.222V318.307H872.686L873.675 291.014H872.356C866.644 301.443 859.613 309.432 851.264 314.979C843.135 320.526 833.907 323.3 823.58 323.3ZM833.467 282.36C840.278 282.36 846.98 278.699 853.571 271.377C860.162 264.054 866.314 254.291 872.027 242.087V186.169C864.996 184.172 857.965 183.174 850.934 183.174C837.752 183.174 827.755 187.722 820.944 196.82C814.352 205.918 811.057 219.342 811.057 237.094C811.057 251.073 813.034 262.168 816.989 270.378C820.944 278.366 826.437 282.36 833.467 282.36Z" fill="url(#paint2_linear)"/>
<path d="M978.265 323.3C959.15 323.3 944.1 315.977 933.115 301.332C922.349 286.465 916.966 265.829 916.966 239.424C916.966 208.137 924.985 184.172 941.024 167.53C957.283 150.666 980.353 142.234 1010.23 142.234C1013.97 142.234 1019.57 142.456 1027.04 142.9V75.3328H1072.85V318.307H1027.7L1028.69 296.007H1027.37C1021.66 304.883 1014.63 311.651 1006.28 316.31C998.149 320.97 988.811 323.3 978.265 323.3ZM988.811 282.36C995.842 282.36 1002.65 279.365 1009.24 273.374C1015.84 267.161 1021.77 258.396 1027.04 247.079V186.169C1019.57 184.172 1012.43 183.174 1005.62 183.174C991.778 183.174 981.231 187.722 973.981 196.82C966.95 205.918 963.435 219.231 963.435 236.761C963.435 250.962 965.632 262.168 970.026 270.378C974.64 278.366 980.902 282.36 988.811 282.36Z" fill="#7F7F7F"/>
<path d="M978.265 323.3C959.15 323.3 944.1 315.977 933.115 301.332C922.349 286.465 916.966 265.829 916.966 239.424C916.966 208.137 924.985 184.172 941.024 167.53C957.283 150.666 980.353 142.234 1010.23 142.234C1013.97 142.234 1019.57 142.456 1027.04 142.9V75.3328H1072.85V318.307H1027.7L1028.69 296.007H1027.37C1021.66 304.883 1014.63 311.651 1006.28 316.31C998.149 320.97 988.811 323.3 978.265 323.3ZM988.811 282.36C995.842 282.36 1002.65 279.365 1009.24 273.374C1015.84 267.161 1021.77 258.396 1027.04 247.079V186.169C1019.57 184.172 1012.43 183.174 1005.62 183.174C991.778 183.174 981.231 187.722 973.981 196.82C966.95 205.918 963.435 219.231 963.435 236.761C963.435 250.962 965.632 262.168 970.026 270.378C974.64 278.366 980.902 282.36 988.811 282.36Z" fill="url(#paint3_linear)"/>
<path d="M1068.75 287.353L1150.16 187.168H1074.36V146.894H1206.84V177.515L1125.77 278.034H1206.84V317.975H1068.75V287.353Z" fill="#7F7F7F"/>
<path d="M1068.75 287.353L1150.16 187.168H1074.36V146.894H1206.84V177.515L1125.77 278.034H1206.84V317.975H1068.75V287.353Z" fill="url(#paint4_linear)"/>
<path d="M1263.82 322.967C1245.8 322.967 1231.63 317.42 1221.3 306.325C1210.98 295.23 1205.81 280.031 1205.81 260.726V146.894H1252.28V253.07C1252.28 262.168 1254.48 269.269 1258.87 274.372C1263.27 279.254 1269.2 281.695 1276.67 281.695C1284.14 281.695 1291.28 279.254 1298.09 274.372C1305.12 269.491 1310.95 262.945 1315.56 254.735V146.894H1362.03V318.307H1315.56V295.674C1309.19 304.328 1301.83 311.096 1293.48 315.977C1285.35 320.637 1275.46 322.967 1263.82 322.967Z" fill="#7F7F7F"/>
<path d="M1263.82 322.967C1245.8 322.967 1231.63 317.42 1221.3 306.325C1210.98 295.23 1205.81 280.031 1205.81 260.726V146.894H1252.28V253.07C1252.28 262.168 1254.48 269.269 1258.87 274.372C1263.27 279.254 1269.2 281.695 1276.67 281.695C1284.14 281.695 1291.28 279.254 1298.09 274.372C1305.12 269.491 1310.95 262.945 1315.56 254.735V146.894H1362.03V318.307H1315.56V295.674C1309.19 304.328 1301.83 311.096 1293.48 315.977C1285.35 320.637 1275.46 322.967 1263.82 322.967Z" fill="url(#paint5_linear)"/>
<path d="M1410.03 243.751V318.307H1363.56V75H1410.03V209.468L1463.09 146.894H1518.12L1450.23 223.78L1521.75 316.31L1471.32 323.3L1410.03 243.751Z" fill="#7F7F7F"/>
<path d="M1410.03 243.751V318.307H1363.56V75H1410.03V209.468L1463.09 146.894H1518.12L1450.23 223.78L1521.75 316.31L1471.32 323.3L1410.03 243.751Z" fill="url(#paint6_linear)"/>
<path d="M1514.86 75.3328H1567.92V118.602H1514.86V75.3328ZM1489.15 278.034H1520.79V187.168H1489.15V146.894H1567.26V278.034H1595.6V318.307H1489.15V278.034Z" fill="#7F7F7F"/>
<path d="M1514.86 75.3328H1567.92V118.602H1514.86V75.3328ZM1489.15 278.034H1520.79V187.168H1489.15V146.894H1567.26V278.034H1595.6V318.307H1489.15V278.034Z" fill="url(#paint7_linear)"/>
</g>
<g filter="url(#filter1_i)">
<path fill-rule="evenodd" clip-rule="evenodd" d="M336.762 201.983C336.77 201.422 336.774 200.861 336.774 200.298C336.774 200.14 336.773 199.982 336.773 199.824C336.77 200.543 336.76 201.26 336.743 201.975C336.749 201.978 336.756 201.981 336.762 201.983ZM268.106 310.24C265.505 307.961 263.088 305.477 260.88 302.813C250.618 306.035 239.698 307.772 228.373 307.772C211.78 307.772 196.058 304.043 181.999 297.379C177.535 303.208 172.275 308.394 166.381 312.776C181.143 319.096 197.401 322.596 214.476 322.596C233.713 322.596 251.913 318.154 268.106 310.24ZM228.373 90.9709C178.358 90.9709 136.254 124.844 123.75 170.901C122.323 170.824 120.885 170.785 119.439 170.785C110.857 170.785 102.595 172.158 94.862 174.696C106.631 119.443 155.713 78 214.476 78C276.695 78 328.062 124.463 335.773 184.585C328.562 131.712 283.225 90.9709 228.373 90.9709Z" fill="#939393"/>
</g>
<circle cx="107.002" cy="263.3" r="63.0019" fill="#535353"/>
<circle cx="107.002" cy="263.3" r="63.0019" fill="url(#paint8_linear)"/>
<circle cx="309.905" cy="271.638" r="54.6634" fill="#535353"/>
<circle cx="309.905" cy="271.638" r="54.6634" fill="url(#paint9_linear)"/>
<g filter="url(#filter2_d)">
<circle cx="214.476" cy="200.298" r="83.3849" fill="#535353"/>
<circle cx="214.476" cy="200.298" r="83.3849" fill="url(#paint10_radial)" style="mix-blend-mode:lighten"/>
</g>
<defs>
<filter id="filter0_di" x="390" y="75" width="1214.6" height="256.3" filterUnits="userSpaceOnUse" color-interpolation-filters="sRGB">
<feFlood flood-opacity="0" result="BackgroundImageFix"/>
<feColorMatrix in="SourceAlpha" type="matrix" values="0 0 0 0 0 0 0 0 0 0 0 0 0 0 0 0 0 0 127 0"/>
<feOffset dx="5" dy="4"/>
<feGaussianBlur stdDeviation="2"/>
<feColorMatrix type="matrix" values="0 0 0 0 0.387731 0 0 0 0 0.198715 0 0 0 0 0.404167 0 0 0 0.5 0"/>
<feBlend mode="normal" in2="BackgroundImageFix" result="effect1_dropShadow"/>
<feBlend mode="normal" in="SourceGraphic" in2="effect1_dropShadow" result="shape"/>
<feColorMatrix in="SourceAlpha" type="matrix" values="0 0 0 0 0 0 0 0 0 0 0 0 0 0 0 0 0 0 127 0" result="hardAlpha"/>
<feOffset dx="6.05014" dy="7.0585"/>
<feGaussianBlur stdDeviation="2.52089"/>
<feComposite in2="hardAlpha" operator="arithmetic" k2="-1" k3="1"/>
<feColorMatrix type="matrix" values="0 0 0 0 0 0 0 0 0 0 0 0 0 0 0 0 0 0 0.25 0"/>
<feBlend mode="normal" in2="shape" result="effect2_innerShadow"/>
</filter>
<filter id="filter1_i" x="94.862" y="78" width="241.912" height="248.596" filterUnits="userSpaceOnUse" color-interpolation-filters="sRGB">
<feFlood flood-opacity="0" result="BackgroundImageFix"/>
<feBlend mode="normal" in="SourceGraphic" in2="BackgroundImageFix" result="shape"/>
<feColorMatrix in="SourceAlpha" type="matrix" values="0 0 0 0 0 0 0 0 0 0 0 0 0 0 0 0 0 0 127 0" result="hardAlpha"/>
<feOffset dy="4"/>
<feGaussianBlur stdDeviation="2"/>
<feComposite in2="hardAlpha" operator="arithmetic" k2="-1" k3="1"/>
<feColorMatrix type="matrix" values="0 0 0 0 0 0 0 0 0 0 0 0 0 0 0 0 0 0 0.25 0"/>
<feBlend mode="normal" in2="shape" result="effect1_innerShadow"/>
</filter>
<filter id="filter2_d" x="127.091" y="116.913" width="174.77" height="174.77" filterUnits="userSpaceOnUse" color-interpolation-filters="sRGB">
<feFlood flood-opacity="0" result="BackgroundImageFix"/>
<feColorMatrix in="SourceAlpha" type="matrix" values="0 0 0 0 0 0 0 0 0 0 0 0 0 0 0 0 0 0 127 0"/>
<feOffset dy="4"/>
<feGaussianBlur stdDeviation="2"/>
<feColorMatrix type="matrix" values="0 0 0 0 0 0 0 0 0 0 0 0 0 0 0 0 0 0 0.25 0"/>
<feBlend mode="color-burn" in2="BackgroundImageFix" result="effect1_dropShadow"/>
<feBlend mode="normal" in="SourceGraphic" in2="effect1_dropShadow" result="shape"/>
</filter>
<linearGradient id="paint0_linear" x1="992.801" y1="-154.286" x2="992.801" y2="323.3" gradientUnits="userSpaceOnUse">
<stop stop-color="#030303"/>
<stop offset="0.1875" stop-color="white" stop-opacity="0.936579"/>
<stop offset="1" stop-color="white" stop-opacity="0"/>
</linearGradient>
<linearGradient id="paint1_linear" x1="992.801" y1="-154.286" x2="992.801" y2="323.3" gradientUnits="userSpaceOnUse">
<stop stop-color="#030303"/>
<stop offset="0.1875" stop-color="white" stop-opacity="0.936579"/>
<stop offset="1" stop-color="white" stop-opacity="0"/>
</linearGradient>
<linearGradient id="paint2_linear" x1="992.801" y1="-154.286" x2="992.801" y2="323.3" gradientUnits="userSpaceOnUse">
<stop stop-color="#030303"/>
<stop offset="0.1875" stop-color="white" stop-opacity="0.936579"/>
<stop offset="1" stop-color="white" stop-opacity="0"/>
</linearGradient>
<linearGradient id="paint3_linear" x1="992.801" y1="-154.286" x2="992.801" y2="323.3" gradientUnits="userSpaceOnUse">
<stop stop-color="#030303"/>
<stop offset="0.1875" stop-color="white" stop-opacity="0.936579"/>
<stop offset="1" stop-color="white" stop-opacity="0"/>
</linearGradient>
<linearGradient id="paint4_linear" x1="992.801" y1="-154.286" x2="992.801" y2="323.3" gradientUnits="userSpaceOnUse">
<stop stop-color="#030303"/>
<stop offset="0.1875" stop-color="white" stop-opacity="0.936579"/>
<stop offset="1" stop-color="white" stop-opacity="0"/>
</linearGradient>
<linearGradient id="paint5_linear" x1="992.801" y1="-154.286" x2="992.801" y2="323.3" gradientUnits="userSpaceOnUse">
<stop stop-color="#030303"/>
<stop offset="0.1875" stop-color="white" stop-opacity="0.936579"/>
<stop offset="1" stop-color="white" stop-opacity="0"/>
</linearGradient>
<linearGradient id="paint6_linear" x1="992.801" y1="-154.286" x2="992.801" y2="323.3" gradientUnits="userSpaceOnUse">
<stop stop-color="#030303"/>
<stop offset="0.1875" stop-color="white" stop-opacity="0.936579"/>
<stop offset="1" stop-color="white" stop-opacity="0"/>
</linearGradient>
<linearGradient id="paint7_linear" x1="992.801" y1="-154.286" x2="992.801" y2="323.3" gradientUnits="userSpaceOnUse">
<stop stop-color="#030303"/>
<stop offset="0.1875" stop-color="white" stop-opacity="0.936579"/>
<stop offset="1" stop-color="white" stop-opacity="0"/>
</linearGradient>
<linearGradient id="paint8_linear" x1="230.226" y1="216.975" x2="107.002" y2="326.302" gradientUnits="userSpaceOnUse">
<stop offset="0.144584" stop-color="white"/>
<stop offset="0.740825" stop-color="white" stop-opacity="0"/>
</linearGradient>
<linearGradient id="paint9_linear" x1="309.905" y1="216.975" x2="309.905" y2="326.302" gradientUnits="userSpaceOnUse">
<stop stop-color="white"/>
<stop offset="1" stop-color="white" stop-opacity="0"/>
</linearGradient>
<radialGradient id="paint10_radial" cx="0" cy="0" r="1" gradientUnits="userSpaceOnUse" gradientTransform="translate(214.476 200.298) rotate(90) scale(83.3849)">
<stop stop-color="white"/>
<stop offset="1" stop-color="white" stop-opacity="0"/>
</radialGradient>
</defs>
</svg>
