<svg width="102" height="126" viewBox="0 0 102 126" fill="none" xmlns="http://www.w3.org/2000/svg">
<rect width="102" height="125.894" fill="#C4C4C4"/>
<line x1="5.35197e-10" y1="22.5" x2="102" y2="22.5" stroke="black"/>
<path d="M18.5189 16.88H19.4989V18H16.2509V16.88H17.2309V10.02H16.2509V8.9H19.1069L21.7529 15.522L24.3989 8.9H27.2549V10.02H26.2749V16.88H27.2549V18H24.0069V16.88H24.9869V10.482L22.3689 16.88H21.1369L18.5189 10.482V16.88ZM30.9549 18L29.4989 16.46V10.44L30.9549 8.9H34.9029L36.3589 10.44V16.46L34.9029 18H30.9549ZM31.5009 16.796H34.3429L35.0709 16.054V10.846L34.3569 10.104H31.5149L30.7869 10.846V16.054L31.5009 16.796ZM40.8724 16.88H41.8524V18H38.6044V16.88H39.5844V10.02H38.6044V8.9H41.5164L45.6044 16.628V10.02H44.6244V8.9H47.8724V10.02H46.8924V18H44.9604L40.8724 10.286V16.88ZM55.4257 14.43H53.4937V13.31H56.5457V16.46L55.0897 18H51.4217L49.9657 16.46V10.44L51.4217 8.9H55.0897L56.5457 10.44V12.204H55.4257V11.014L54.5437 10.104H51.9817L51.2537 10.846V16.054L51.9677 16.796H54.5297L55.4257 15.886V14.43ZM60.1033 18L58.6473 16.46V10.44L60.1033 8.9H64.0513L65.5073 10.44V16.46L64.0513 18H60.1033ZM60.6493 16.796H63.4913L64.2193 16.054V10.846L63.5053 10.104H60.6633L59.9353 10.846V16.054L60.6493 16.796ZM67.7528 8.9H73.7168L75.1728 10.44V16.46L73.7168 18H67.7528V16.88H68.7328V10.02H67.7528V8.9ZM70.0208 16.796H73.1568L73.8848 16.054V10.846L73.1708 10.104H70.0208V16.796ZM77.4188 8.9H83.0188L84.4748 10.44V12.4L83.7188 13.198L84.7548 14.276V16.46L83.2988 18H77.4188V16.88H78.3988V10.02H77.4188V8.9ZM79.6868 13.856V16.796H82.7388L83.5508 15.97V14.766L82.6688 13.856H79.6868ZM79.6868 10.104V12.736H82.4588L83.2708 11.91V10.93L82.4728 10.104H79.6868Z" fill="black"/>
<path d="M66.9808 65.1292C62.7232 46.3549 52.664 40.1989 51.5832 37.8398C50.396 36.1666 49.1178 33.0026 49.1178 33.0026C49.1051 33.0684 49.1051 33.1089 49.0924 33.1747V33.2152C49.0924 33.2683 49.0798 33.2937 49.0798 33.3468V33.4H49.0671V33.5696H49.0545C49.0545 33.5949 49.0545 33.6354 49.0418 33.648V33.7265C49.0418 33.7518 49.0418 33.7797 49.0292 33.7923V33.8581C49.0292 33.8986 49.0292 33.9366 49.0165 33.9644V33.9771C49.0143 34.0352 49.0058 34.0929 48.9912 34.1492V34.1745C48.9785 34.1872 48.9785 34.1998 48.9785 34.215V34.2682H48.9659V34.3467H48.9532V34.3998H48.9279V34.4783H48.9153V34.5441H48.9026V34.5973H48.8899V34.6504H48.8773V34.7036H48.8646V34.7567H48.852V34.7972H48.8393V34.8504H48.8267V34.9035H48.814C48.8013 34.9035 48.8013 34.9162 48.8013 34.9162V34.9415L48.7887 34.9668C48.7887 34.9921 48.776 35.02 48.7634 35.0453C48.7507 35.0579 48.7507 35.0579 48.7507 35.0706V35.0959H48.7381V35.1212H48.7128V35.187H48.6874V35.2275H48.6748V35.2402H48.6621V35.2655H48.6495V35.306H48.6368V35.3313H48.6115V35.3718H48.5988V35.3971H48.5862V35.4224H48.5735V35.4629H48.5609V35.4883H48.5482V35.5009H48.5356V35.5262H48.5103V35.5667H48.4976V35.5794H48.4849V35.6047H48.4723V35.6452H48.4596V35.6578H48.447V35.6832H48.4343V35.6958H48.4217V35.7363H48.3963V35.749H48.3837V35.7743H48.371V35.7869H48.3584V35.8123H48.3457V35.8376C48.3331 35.8376 48.3331 35.8502 48.3331 35.8502V35.8629H48.3204L48.2799 35.9287C48.2799 35.9287 48.2546 35.954 48.2546 35.9692C48.2419 35.9692 48.2419 35.9818 48.2419 35.9818V35.9945H48.2293V36.0072H48.2166V36.0325H48.1913V36.0451H48.1787V36.0578H48.166V36.0958H48.1533V36.1084H48.1407V36.1211H48.128V36.1464H48.1154V36.1211H48.0901V36.1337H48.0774V36.159H48.0648V36.1843H48.0521V36.197H48.0394V36.2097H48.0268V36.2223H48.0141V36.2476H47.9888V36.2603H47.9762V36.2856H47.9635V36.2983H47.9508V36.3109H47.9382V36.3514H47.9255V36.3641H47.9129V36.3767H47.9002V36.3894H47.8876V36.402H47.8623V36.4273H47.8496V36.44H47.8369V36.4527H47.8243V36.478H47.8116V36.4906H47.7863V36.5033H47.7737V36.5159H47.761V36.5413H47.7483V36.5666H47.7357V36.5792H47.723V36.5919H47.6977V36.6045H47.6851V36.6172H47.6724V36.6425H47.6598V36.6552H47.6471V36.6805H47.6344V36.6931H47.6218V36.7058H47.6091V36.7184H47.5965V36.7311H47.5712V36.7438C47.5585 36.7438 47.5585 36.7564 47.5585 36.7564L47.5458 36.7691L47.5332 36.7817V36.807H47.5205V36.8197H47.5079V36.8323H47.4952V36.845H47.4826L47.4573 36.8703V36.883C47.4319 36.8956 47.4319 36.9083 47.4041 36.9361C47.4041 36.9361 47.3788 36.9614 47.3636 36.9614C47.3231 36.9868 47.2725 37.0399 47.232 37.0804C47.2067 37.0931 47.1788 37.1209 47.1535 37.1336C47.1003 37.1867 47.0472 37.2247 46.994 37.2652C46.9156 37.3437 46.8346 37.3968 46.7434 37.4753H46.7308L46.1106 38.017H46.098C45.531 38.5182 44.8577 39.1636 44.0932 39.9281L44.0274 39.9939C39.4383 44.74 32.2014 54.6397 31.4496 70.6321C31.3712 71.9509 31.3838 73.2418 31.4623 74.4948V74.5201C31.8319 80.8229 33.8088 86.2018 36.2869 90.5784C37.2614 92.3199 38.3296 93.9019 39.4104 95.3245C43.1288 100.23 46.9257 103.143 47.8876 103.855C49.3785 107.295 49.2443 113.228 49.2443 113.228L51.4187 113.952C51.4187 113.952 50.9706 108.216 51.5908 105.434C51.7882 104.576 52.2363 103.84 52.7653 103.207C53.1348 102.956 54.1904 102.192 55.456 101.032C55.5218 100.967 55.5623 100.913 55.6155 100.848C60.7438 96.0611 70.3296 84.2756 67.0466 65.0811L66.9808 65.1292Z" fill="black"/>
</svg>
