<svg width="102" height="126" viewBox="0 0 102 126" fill="none" xmlns="http://www.w3.org/2000/svg">
<rect width="102" height="125.894" fill="#C4C4C4"/>
<line x1="5.35197e-10" y1="22.5" x2="102" y2="22.5" stroke="black"/>
<path d="M24.6439 16.88H25.6239V18H22.3759V16.88H23.3559V10.02H22.3759V8.9H25.2879L29.3759 16.628V10.02H28.3959V8.9H31.6439V10.02H30.6639V18H28.7319L24.6439 10.286V16.88ZM33.7372 8.9H40.4012V11.644H39.2812V10.02H36.0052V12.89H39.2812V14.01H36.0052V16.88H39.2812V15.256H40.4012V18H33.7372V16.88H34.7172V10.02H33.7372V8.9ZM47.6216 18H43.5336V16.88H44.9336V10.02H43.0016V11.644H41.9376V8.9H49.2176V11.644H48.1536V10.02H46.2216V16.88H47.6216V18ZM50.7587 8.9H54.1467V10.02H53.0267V16.88H56.0787V15.256H57.1427V18H50.7587V16.88H51.7387V10.02H50.7587V8.9ZM58.398 16.88H59.518V10.02H58.398V8.9H61.926V10.02H60.806V16.88H61.926V18H58.398V16.88ZM64.0204 8.9H70.6844V11.644H69.5644V10.02H66.2884V12.89H69.5644V14.01H66.2884V16.88H67.4084V18H64.0204V16.88H65.0004V10.02H64.0204V8.9ZM77.4002 18H73.5922V16.88H74.8522V15.144L72.4162 10.02H71.5202V8.9H74.4882V10.02H73.6482L75.4822 13.898L77.3302 10.02H76.4902V8.9H79.4582V10.02H78.5622L76.1402 15.116V16.88H77.4002V18Z" fill="black"/>
<path d="M67.1531 62.755C67.5353 62.9499 67.8897 63.2131 68.1782 63.5321L76.1036 59.9984L68.7098 52.6679L67.0468 62.6487L67.1531 62.755ZM50.6999 56.0952C51.0948 56.6749 51.3302 57.333 51.4112 58.0317L63.2094 63.0309C63.5638 62.755 63.9713 62.555 64.4067 62.436L66.3431 50.4506L59.1568 42.91L50.6949 55.9079L50.6999 56.0952ZM90.9721 74.6189L78.3285 61.9753L69.7198 65.4963L90.8683 74.4873C90.8683 74.4873 91.0531 74.6189 90.9721 74.6189ZM88.8636 76.6768L68.563 67.9997C68.2804 68.3738 67.9259 68.6876 67.5204 68.9228C67.1148 69.158 66.6663 69.3097 66.2013 69.3691L64.027 82.7265C64.6724 83.3847 65.042 84.2681 65.042 85.1894L77.3008 87.7612L88.5472 76.5933V76.3832L88.8636 76.6768ZM61.9691 65.2179L50.9505 60.5224C50.5715 61.1056 50.0481 61.5808 49.4312 61.902C48.8142 62.2231 48.1247 62.3792 47.4296 62.355H46.7588L37.6235 76.449L62.0121 65.8887V65.9165C61.9994 65.7277 61.9994 65.5383 62.0121 65.3495C62.0248 65.309 62.0121 65.2584 61.9716 65.2179H61.9691ZM75.3644 89.8874L64.5813 87.6574C64.1808 88.1821 63.6416 88.5845 63.0246 88.8192L60.4528 104.759L75.4303 89.9127C75.4303 89.9127 75.4024 89.9937 75.3619 89.9937L75.3644 89.8874ZM60.2807 88.7889C59.7699 88.5798 59.3153 88.2538 58.9535 87.837C58.5916 87.4203 58.3327 86.9244 58.1975 86.3892L38.1196 82.2658L37.8285 82.7291L56.051 109.082L57.1445 108.001L60.2428 88.8572C60.2428 88.8572 60.3465 88.9357 60.2807 88.8977V88.7889ZM38.5423 79.8384L58.3848 83.9263C58.6693 83.4276 59.0716 83.0061 59.5565 82.6985C60.0414 82.391 60.5942 82.2068 61.1667 82.1621L63.3157 69.0299L62.8525 68.6351L38.188 79.2081C38.3196 79.403 38.4386 79.6156 38.5423 79.8384V79.8384ZM30.2221 83.1467L29.7994 82.7291L21.2438 86.245L25.395 90.3734L30.1158 83.0429L30.2221 83.1467ZM35.8668 84.4933C35.2703 84.7621 34.6251 84.9059 33.9709 84.9161C33.4419 84.9161 32.9407 84.8351 32.4395 84.6655L27.2327 92.2466L50.0671 114.868L54.0868 110.871L35.8668 84.4933ZM32.6623 75.5808C33.004 75.5428 33.3609 75.5428 33.7153 75.5808C34.1 75.5302 34.4949 75.5302 34.8771 75.5808L44.1035 61.2362C43.3848 60.4883 42.983 59.4916 42.9822 58.4544C42.9442 58.1484 42.9442 57.8389 42.9822 57.533L31.7763 52.3515L22.7575 61.1299L32.6623 75.5808ZM33.6798 50.5974L44.6072 55.2523C45.3964 54.5933 46.4021 54.2505 47.4296 54.2905C47.8776 54.3031 48.3231 54.3689 48.7585 54.5006L57.2913 41.1862L50.2367 34.1316L33.6798 50.3847C33.6798 50.3847 33.652 50.5569 33.6798 50.5974V50.5974ZM29.5918 78.1526C29.8146 77.745 30.0905 77.3628 30.4094 77.0186L21.0615 63.0688L10.0025 73.814L29.5918 78.1526ZM28.7084 80.5117L11.7921 76.9781L19.2264 84.5212L28.6021 80.5395L28.7084 80.5117Z" fill="black"/>
</svg>
