<svg width="102" height="126" viewBox="0 0 102 126" fill="none" xmlns="http://www.w3.org/2000/svg">
<rect width="102" height="125.894" fill="#C4C4C4"/>
<line x1="5.35197e-10" y1="22.5" x2="102" y2="22.5" stroke="black"/>
<path d="M29.4169 7.5H35.0169L36.4729 9.04V12.12L35.0169 13.66L36.5149 16.88H37.2429V18H34.6109V16.88H35.1569L33.6589 13.66H31.6849V16.88H32.5249V18H29.4169V16.88H30.3969V8.62H29.4169V7.5ZM31.6849 8.704V12.456H34.4569L35.2689 11.63V9.53L34.4709 8.704H31.6849ZM39.2059 7.5H45.8699V10.244H44.7499V8.62H41.4739V12.19H44.7499V13.31H41.4739V16.88H44.7499V15.256H45.8699V18H39.2059V16.88H40.1859V8.62H39.2059V7.5ZM49.7163 7.5H53.4543V8.62H52.8103L55.2743 16.88H55.9743V18H53.0063V16.88H53.9863L53.3423 14.724H49.8283L49.1843 16.88H50.1643V18H47.1963V16.88H47.8963L50.3603 8.62H49.7163V7.5ZM51.5783 8.83L50.1643 13.604H53.0063L51.5783 8.83ZM62.6275 14.696H63.7475V16.46L62.2915 18H58.7635L57.3075 16.46V9.04L58.7635 7.5H62.2915L63.7475 9.04V10.804H62.6275V9.614L61.7455 8.704H59.3235L58.5955 9.446V16.054L59.3095 16.796H61.7315L62.6275 15.886V14.696ZM70.686 18H66.598V16.88H67.998V8.62H65.926V10.244H64.862V7.5H72.422V10.244H71.358V8.62H69.286V16.88H70.686V18Z" fill="black"/>
<path d="M51.5 65.8063C55.1479 65.8063 58.1229 68.7813 58.1229 72.5C58.1229 76.0417 55.1479 79.0521 51.5 79.0521C47.8521 79.0521 44.8771 76.0417 44.8771 72.5C44.8771 68.7813 47.8521 65.8063 51.5 65.8063ZM35.1021 100.833C37.3333 102.179 42.2208 100.125 47.8521 94.8125C46.0104 92.7229 44.2041 90.4563 42.5041 88.0834C39.6501 87.8102 36.8127 87.3846 34.0041 86.8084C32.1979 94.3875 32.8708 99.5938 35.1021 100.833ZM37.6166 80.5042L36.5896 78.6979C36.2 79.725 35.8104 80.7521 35.5625 81.7438C36.5187 81.9563 37.5812 82.1334 38.6791 82.3104L37.6166 80.5042ZM60.7791 77.8125L63.6479 72.5L60.7791 67.1875C59.7166 65.3104 58.5833 63.6459 57.5562 61.9813C55.6437 61.875 53.625 61.875 51.5 61.875C49.375 61.875 47.3562 61.875 45.4437 61.9813C44.4166 63.6459 43.2833 65.3104 42.2208 67.1875L39.3521 72.5L42.2208 77.8125C43.2833 79.6896 44.4166 81.3542 45.4437 83.0188C47.3562 83.125 49.375 83.125 51.5 83.125C53.625 83.125 55.6437 83.125 57.5562 83.0188C58.5833 81.3542 59.7166 79.6896 60.7791 77.8125ZM51.5 54.0125C50.8271 54.7917 50.1187 55.6063 49.4104 56.5625H53.5896C52.8812 55.6063 52.1729 54.7917 51.5 54.0125ZM51.5 90.9875C52.1729 90.2084 52.8812 89.3938 53.5896 88.4375H49.4104C50.1187 89.3938 50.8271 90.2084 51.5 90.9875ZM67.8625 44.1667C65.6666 42.8209 60.7791 44.875 55.1479 50.1875C56.9896 52.2771 58.7958 54.5438 60.4958 56.9167C63.4 57.2 66.2687 57.625 68.9958 58.1917C70.8021 50.6125 70.1292 45.4063 67.8625 44.1667ZM65.3833 64.4959L66.4104 66.3021C66.8 65.275 67.1896 64.2479 67.4375 63.2563C66.4812 63.0438 65.4187 62.8667 64.3208 62.6896L65.3833 64.4959ZM70.5187 39.5271C75.725 42.5021 76.2916 50.3292 74.0958 59.4667C83.0916 62.1229 89.5729 66.5146 89.5729 72.5C89.5729 78.4854 83.0916 82.8771 74.0958 85.5334C76.2916 94.6709 75.725 102.498 70.5187 105.473C65.3479 108.448 58.3 105.048 51.5 98.5667C44.7 105.048 37.6521 108.448 32.4458 105.473C27.275 102.498 26.7083 94.6709 28.9041 85.5334C19.9083 82.8771 13.4271 78.4854 13.4271 72.5C13.4271 66.5146 19.9083 62.1229 28.9041 59.4667C26.7083 50.3292 27.275 42.5021 32.4458 39.5271C37.6521 36.5521 44.7 39.9521 51.5 46.4334C58.3 39.9521 65.3479 36.5521 70.5187 39.5271ZM69.4916 72.5C70.6958 75.1563 71.7583 77.8125 72.6437 80.5042C80.0812 78.2729 84.2604 75.0854 84.2604 72.5C84.2604 69.9146 80.0812 66.7271 72.6437 64.4959C71.7583 67.1875 70.6958 69.8438 69.4916 72.5ZM33.5083 72.5C32.3041 69.8438 31.2416 67.1875 30.3562 64.4959C22.9187 66.7271 18.7396 69.9146 18.7396 72.5C18.7396 75.0854 22.9187 78.2729 30.3562 80.5042C31.2416 77.8125 32.3041 75.1563 33.5083 72.5ZM65.3833 80.5042L64.3208 82.3104C65.4187 82.1334 66.4812 81.9563 67.4375 81.7438C67.1896 80.7521 66.8 79.725 66.4104 78.6979L65.3833 80.5042ZM55.1479 94.8125C60.7791 100.125 65.6666 102.179 67.8625 100.833C70.1292 99.5938 70.8021 94.3875 68.9958 86.8084C66.2687 87.375 63.4 87.8 60.4958 88.0834C58.7958 90.4563 56.9896 92.7229 55.1479 94.8125ZM37.6166 64.4959L38.6791 62.6896C37.5812 62.8667 36.5187 63.0438 35.5625 63.2563C35.8104 64.2479 36.2 65.275 36.5896 66.3021L37.6166 64.4959ZM47.8521 50.1875C42.2208 44.875 37.3333 42.8209 35.1021 44.1667C32.8708 45.4063 32.1979 50.6125 34.0041 58.1917C36.8127 57.6154 39.6501 57.1898 42.5041 56.9167C44.2041 54.5438 46.0104 52.2771 47.8521 50.1875Z" fill="black"/>
</svg>
