<svg width="102" height="126" viewBox="0 0 102 126" fill="none" xmlns="http://www.w3.org/2000/svg">
<rect width="102" height="125.894" fill="#C4C4C4"/>
<line x1="5.35197e-10" y1="22.5" x2="102" y2="22.5" stroke="black"/>
<path d="M27.2147 7.5H32.8147L34.2707 9.04V12.12L32.8147 13.66L34.3127 16.88H35.0407V18H32.4087V16.88H32.9547L31.4567 13.66H29.4827V16.88H30.3227V18H27.2147V16.88H28.1947V8.62H27.2147V7.5ZM29.4827 8.704V12.456H32.2547L33.0667 11.63V9.53L32.2687 8.704H29.4827ZM37.0038 8.9H43.6678V11.644H42.5478V10.02H39.2718V12.89H42.5478V14.01H39.2718V16.88H42.5478V15.256H43.6678V18H37.0038V16.88H37.9838V10.02H37.0038V8.9ZM45.9042 8.9H51.8682L53.3242 10.44V16.46L51.8682 18H45.9042V16.88H46.8842V10.02H45.9042V8.9ZM48.1722 16.796H51.3082L52.0362 16.054V10.846L51.3222 10.104H48.1722V16.796ZM60.7222 8.9H63.8302V10.02H62.9902V16.46L61.5342 18H57.7262L56.2702 16.46V10.02H55.4302V8.9H58.5382V10.02H57.5582V16.054L58.2722 16.796H60.9742L61.7022 16.054V10.02H60.7222V8.9ZM68.2015 18H65.2335V16.88H66.0455L68.6215 13.338L66.1855 10.02H65.3735V8.9H68.3415V10.02H67.6275L69.4335 12.498L71.2255 10.02H70.5115V8.9H73.4795V10.02H72.6675L70.1615 13.478L72.6535 16.88H73.4795V18H70.5115V16.88H71.2115L69.3355 14.318L67.4875 16.88H68.2015V18Z" fill="black"/>
<path d="M64.8984 84.511C67.5106 84.2883 69.5266 81.9911 69.3984 79.2483C69.2566 76.5056 67.0066 74.305 64.2774 74.305H64.0884C62.7291 74.3537 61.4448 74.9402 60.5178 75.9355C59.5909 76.9308 59.0971 78.2535 59.1451 79.6128C59.2374 81.055 59.8224 82.2138 60.6324 83.0688C57.4801 89.1866 52.7686 93.6776 45.6091 97.4598C40.8054 99.9686 35.7294 100.918 30.7861 100.239C26.6484 99.6648 23.4151 97.8153 21.4351 94.8476C18.4674 90.3476 18.1974 85.5078 20.6724 80.6456C22.4746 77.1423 25.1724 74.5728 26.9634 73.3195C26.425 71.812 26.006 70.2645 25.7101 68.6913C12.3991 78.22 13.7581 91.2633 17.8014 97.417C20.8141 101.917 26.9634 104.788 33.7021 104.788C35.5089 104.788 37.3944 104.66 39.2349 104.201C50.9326 101.951 59.7796 94.9421 64.8511 84.6078L64.8984 84.511ZM80.9409 73.2745C73.9816 65.0935 63.7261 60.5935 52.0441 60.5935H50.5074C49.7581 58.9398 47.9986 57.9003 46.0186 57.9003H45.8904C43.0554 57.9003 40.8504 60.337 40.9426 63.163C41.0394 65.8563 43.3209 68.1063 46.0636 68.1063H46.2886C47.2617 68.0667 48.2031 67.7487 49.0008 67.1899C49.7984 66.6311 50.419 65.8551 50.7886 64.954H52.4514C59.3791 64.954 65.9311 66.9813 71.9184 70.9323C76.4881 73.9405 79.7821 77.905 81.6204 82.6255C83.2381 86.4798 83.1436 90.2666 81.4786 93.4188C78.9249 98.3508 74.6004 100.963 68.9056 100.963C65.3079 100.963 61.8046 99.8381 59.9979 99.0303C58.9201 99.9213 57.1156 101.409 55.8129 102.313C59.7751 104.104 63.7711 105.137 67.6389 105.137C76.4049 105.137 82.9209 100.203 85.3936 95.4348C88.0869 90.0438 87.8664 80.9605 80.9859 73.18L80.9409 73.2745ZM34.4649 86.1288C34.5264 87.4526 35.0925 88.7026 36.047 89.622C37.0015 90.5414 38.2719 91.0602 39.5971 91.072H39.7749C40.4504 91.056 41.116 90.9051 41.7324 90.6281C42.3488 90.3511 42.9036 89.9536 43.3642 89.4591C43.8247 88.9646 44.1818 88.3829 44.4143 87.7484C44.6468 87.1139 44.7501 86.4393 44.7181 85.7643C44.7181 83.0666 42.3871 80.8166 39.6444 80.8166H39.4554C39.2821 80.8166 39.0121 80.8165 38.7781 80.9133C35.0521 74.62 33.4794 67.87 34.0644 60.5913C34.4176 55.108 36.2221 50.3493 39.4554 46.3893C42.1531 43.0255 47.2246 41.3493 50.6941 41.2683C60.3984 41.0793 64.4529 53.1843 64.7589 57.9903L69.2589 59.338C68.2149 44.596 59.0529 36.8628 50.2869 36.8628C42.0609 36.8628 34.4649 42.8388 31.4071 51.6048C27.2334 63.3025 29.9761 74.5278 35.0971 83.5278C34.6539 84.1016 34.3839 85.1456 34.4649 86.1288Z" fill="black"/>
</svg>
