<svg width="102" height="126" viewBox="0 0 102 126" fill="none" xmlns="http://www.w3.org/2000/svg">
<rect width="102" height="125.894" fill="#C4C4C4"/>
<line x1="5.35197e-10" y1="22.5" x2="102" y2="22.5" stroke="black"/>
<path d="M9.33743 8.9H12.4454V10.02H11.6054V16.46L10.1494 18H6.34143L4.88543 16.46V10.02H4.04543V8.9H7.15343V10.02H6.17343V16.054L6.88743 16.796H9.58943L10.3174 16.054V10.02H9.33743V8.9ZM16.8167 16.88H17.7967V18H14.5487V16.88H15.5287V10.02H14.5487V8.9H17.4607L21.5487 16.628V10.02H20.5687V8.9H23.8167V10.02H22.8367V18H20.9047L16.8167 10.286V16.88ZM25.77 16.88H26.89V10.02H25.77V8.9H29.298V10.02H28.178V16.88H29.298V18H25.77V16.88ZM31.3925 8.9H36.9925L38.4485 10.44V13.24L37.0345 14.724L38.3365 16.88H39.0785V18H36.5865V16.88H36.9785L35.7185 14.78H33.6605V16.88H34.5005V18H31.3925V16.88H32.3725V10.02H31.3925V8.9ZM33.6605 10.104V13.576H36.4325L37.2445 12.75V10.93L36.4465 10.104H33.6605ZM41.1815 8.9H47.8455V11.644H46.7255V10.02H43.4495V12.89H46.7255V14.01H43.4495V16.88H46.7255V15.256H47.8455V18H41.1815V16.88H42.1615V10.02H41.1815V8.9ZM55.5419 14.43H53.6099V13.31H56.6619V16.46L55.2059 18H51.5379L50.0819 16.46V10.44L51.5379 8.9H55.2059L56.6619 10.44V12.204H55.5419V11.014L54.6599 10.104H52.0979L51.3699 10.846V16.054L52.0839 16.796H54.6459L55.5419 15.886V14.43ZM58.6236 16.88H59.7436V10.02H58.6236V8.9H62.1516V10.02H61.0316V16.88H62.1516V18H58.6236V16.88ZM70.406 12.204H69.244V10.972L68.404 10.104H66.262L65.534 10.846V12.218L66.22 12.918H69.132L70.546 14.402V16.46L69.09 18H65.562L64.106 16.46V14.696H65.268V15.928L66.122 16.796H68.544L69.258 16.054V14.808L68.586 14.122H65.674L64.246 12.624V10.44L65.702 8.9H68.95L70.406 10.44V12.204ZM77.6245 18H73.5365V16.88H74.9365V10.02H73.0045V11.644H71.9405V8.9H79.2205V11.644H78.1565V10.02H76.2245V16.88H77.6245V18ZM80.7616 8.9H86.3616L87.8176 10.44V13.24L86.4036 14.724L87.7056 16.88H88.4476V18H85.9556V16.88H86.3476L85.0876 14.78H83.0296V16.88H83.8696V18H80.7616V16.88H81.7416V10.02H80.7616V8.9ZM83.0296 10.104V13.576H85.8016L86.6136 12.75V10.93L85.8156 10.104H83.0296ZM95.5907 18H91.7827V16.88H93.0427V15.144L90.6067 10.02H89.7107V8.9H92.6787V10.02H91.8387L93.6727 13.898L95.5207 10.02H94.6807V8.9H97.6487V10.02H96.7527L94.3307 15.116V16.88H95.5907V18Z" fill="black"/>
<path d="M24.1875 43.8969V44.15H36.8438V43.8969H24.1875ZM62.1562 43.8969V44.15H74.8125V43.8969H62.1562ZM24.1875 48.4531V49.2125H36.8438V48.4531H24.1875ZM62.1562 48.4531V49.2125H74.8125V48.4531H62.1562ZM24.1875 53.0094V54.0219H36.8438V53.0094H24.1875ZM62.1562 53.0094V54.0219H74.8125V53.0094H62.1562ZM24.1875 57.5656V58.8312H36.8438V57.5656H24.1875ZM62.1562 57.5656V58.8312H74.8125V57.5656H62.1562ZM24.1875 62.1219V63.6406H36.8438V62.1219H24.1875ZM62.1562 62.1219V63.6406H74.8125V62.1219H62.1562ZM24.1875 66.6781V68.7031H36.8438V66.6781H24.1875ZM62.1562 66.6781V68.7031H74.8125V66.6781H62.1562ZM24.1875 71.2344V73.5125H36.8438V71.2344H24.1875V71.2344ZM62.1562 71.2344V73.5125H74.8125V71.2344H62.1562V71.2344ZM24.1875 75.7906V78.3219H36.8438V75.7906H24.1875ZM62.1562 75.7906V78.3219H74.8125V75.7906H62.1562ZM24.4406 80.3469C24.4406 81.3594 24.6938 82.3719 24.9469 83.3844H38.3625C37.8563 82.3719 37.35 81.3594 37.0969 80.3469H24.4406ZM61.9031 80.3469C61.65 81.3594 61.3969 82.3719 60.8906 83.3844H74.3062C74.5594 82.3719 74.8125 81.3594 74.8125 80.3469H61.9031ZM25.2 84.9031C25.4531 85.9156 25.9594 87.1812 26.4656 88.1937H42.6656C41.4 87.4344 40.1344 86.1687 39.375 84.9031H25.2ZM59.625 84.9031C58.6125 86.1687 57.6 87.4344 56.0813 88.1937H72.5344C73.0406 87.1812 73.2938 85.9156 73.8 84.9031H59.625ZM27.225 89.4594C27.9844 90.725 28.4906 91.9906 29.25 93.0031H69.4969C70.5094 91.9906 71.2687 90.725 71.775 89.4594H27.225ZM30.0094 94.0156C31.275 95.5344 32.7937 96.8 34.3125 98.0656H64.4344C65.9531 96.8 67.4719 95.5344 68.7375 94.0156H30.0094ZM35.325 98.5719C39.375 101.356 44.1844 102.875 49.5 102.875C54.8156 102.875 59.625 101.356 63.675 98.5719H35.325Z" fill="black"/>
</svg>
